# Blender v2.81 (sub 16) OBJ File: 'ENVI_Bathroom.blend'
# www.blender.org
mtllib ENVI_Bathroom.mtl
o ENVI_Bathroom
v 0.834902 -0.076356 3.354803
v -0.762290 0.529495 3.354804
v 0.762309 0.529495 3.354803
v 0.955895 -0.197349 3.499989
v -0.955893 -0.197349 3.354804
v -0.955893 -0.197349 3.499990
v 0.955895 1.397345 3.354803
v 0.955895 -0.197349 3.354803
v -0.834900 -0.076356 3.354804
v -0.955893 1.397345 3.354804
v -0.762290 0.529495 3.499989
v -0.032100 -0.005778 3.499989
v -0.032100 0.529495 3.499989
v -0.762290 -0.005778 3.354804
v -0.032100 -0.005778 3.354803
v -0.032100 1.205773 3.499989
v -0.762290 1.205773 3.499989
v 0.040510 0.529495 3.354803
v -0.032100 0.626296 3.354803
v 0.762309 0.626296 3.354803
v -0.762290 0.626296 3.499989
v -0.762290 0.626296 3.354804
v 0.762309 0.529495 3.499989
v 0.762309 -0.005778 3.354803
v 0.040510 1.205773 3.499989
v 0.762309 1.205773 3.354803
v 0.040510 1.205773 3.354803
v -0.032100 0.626296 3.499989
v -0.762290 1.205773 3.354804
v -0.762290 -0.005761 3.499989
v -2.199996 -1.000001 -3.499989
v -1.900001 1.019995 -1.949999
v -1.000000 1.019995 -1.949999
v -0.900002 -1.000000 -1.949999
v -1.999999 -1.000000 -1.949999
v -1.999999 1.119993 -2.049998
v -0.900002 1.119993 -1.949999
v -1.999999 1.119993 -1.949999
v 2.199994 1.800001 -3.499990
v -2.199996 1.800001 -3.499989
v -2.199996 -1.000000 -1.999998
v -1.900001 -1.000000 -2.049998
v -1.000000 -1.000000 -2.049998
v 2.199994 1.800001 -2.000000
v -2.199994 -0.999999 3.499990
v 2.199996 1.800002 3.499988
v 0.955895 1.397345 3.499989
v -0.955893 1.397345 3.499989
v -1.999999 1.119993 -1.999998
v -2.199996 1.800001 -1.999998
v -0.900002 1.119993 -1.999999
v 0.040510 0.626296 3.499989
v 0.762292 1.205773 3.499989
v 0.762309 0.626296 3.499989
v 0.040510 -0.005761 3.499989
v 0.762292 -0.005778 3.499989
v 0.040510 0.529495 3.499989
v -0.032100 1.205773 3.354803
v -0.032100 0.529495 3.354803
v -2.199994 1.800002 3.499990
v 0.040510 -0.005761 3.354803
v 0.040510 0.626296 3.354803
v -0.834883 1.276351 3.354803
v 0.834918 1.276351 3.354803
v -0.955893 0.093488 3.499990
v -0.955893 0.309054 3.499989
v -2.199994 0.093488 3.499990
v -2.199994 0.309054 3.499990
v 2.199996 -0.999999 3.499989
v 2.199996 -0.784433 3.499989
v -2.199994 -0.784433 3.499990
v 2.199996 0.093488 3.499988
v 2.199996 0.309054 3.499988
v 0.955895 0.093488 3.499989
v 0.955895 0.309054 3.499989
v 2.199994 0.093488 -2.000000
v 2.199994 0.309054 -2.000000
v 2.199994 -0.784433 -1.999999
v -2.199996 0.093488 -1.999998
v -2.199996 0.309054 -1.999998
v -0.900002 -1.000000 -2.049998
v -0.900002 1.119993 -2.049998
v -1.900001 -1.000000 -1.949999
v -1.000000 -1.000000 -1.949999
v -1.999999 -1.000000 -2.049998
v -1.900001 1.019995 -2.049998
v -1.000000 1.019995 -2.049998
v -1.999999 -1.000000 -1.999998
v -0.900002 -1.000000 -1.999998
v 2.199994 -1.000000 -3.499990
v 2.199994 -0.784433 -3.499990
v -2.199996 -0.784433 -3.499989
v -2.199996 -0.784433 -1.999998
v -0.900002 0.093488 -1.999999
v -0.900002 0.309054 -1.999999
v -1.999999 0.093488 -1.999998
v -1.999999 0.309054 -1.999998
v 2.199994 -1.000000 -1.999999
v -1.999999 -0.784433 -1.999998
v -0.900002 -0.784433 -1.999998
v 0.834902 -0.076356 3.354803
v -0.762290 0.529495 3.354804
v 0.762309 0.529495 3.354803
v -0.834900 -0.076356 3.354804
v -0.762290 -0.005778 3.354804
v -0.032100 -0.005778 3.354803
v 0.040510 0.529495 3.354803
v -0.032100 0.626296 3.354803
v 0.762309 0.626296 3.354803
v -0.762290 0.626296 3.354804
v 0.762309 -0.005778 3.354803
v 0.762309 1.205773 3.354803
v 0.040510 1.205773 3.354803
v -0.762290 1.205773 3.354804
v -0.032100 1.205773 3.354803
v -0.032100 0.529495 3.354803
v 0.040510 -0.005761 3.354803
v 0.040510 0.626296 3.354803
v -0.834883 1.276351 3.354803
v 0.834918 1.276351 3.354803
v -0.762290 0.529495 3.499989
v -0.032100 -0.005778 3.499989
v -0.032100 0.529495 3.499989
v -0.032100 1.205773 3.499989
v -0.762290 1.205773 3.499989
v -0.762290 0.626296 3.499989
v 0.762309 0.529495 3.499989
v 0.040510 1.205773 3.499989
v -0.032100 0.626296 3.499989
v -0.762290 -0.005761 3.499989
v 0.040510 0.626296 3.499989
v 0.762292 1.205773 3.499989
v 0.762309 0.626296 3.499989
v 0.040510 -0.005761 3.499989
v 0.762292 -0.005778 3.499989
v 0.040510 0.529495 3.499989
v -2.199996 -1.000000 -1.999998
v 2.199994 -0.784433 -1.999999
v -1.999999 -1.000000 -1.999998
v -0.900002 -1.000000 -1.999998
v -2.199996 -0.784433 -1.999998
v 2.199994 -1.000000 -1.999999
v -1.999999 -0.784433 -1.999998
v -0.900002 -0.784433 -1.999998
vt 0.888889 0.000000
vt 0.888889 0.554685
vt 0.777778 0.554685
vt 0.777778 0.000000
vt 0.111111 0.972478
vt 0.111111 0.561134
vt 0.222223 0.561134
vt 0.222223 0.972478
vt 0.111111 0.561134
vt 0.111111 0.972478
vt 0.000000 0.972478
vt 0.000000 0.561134
vt 0.555556 1.000000
vt 0.555556 0.554685
vt 0.666667 0.554685
vt 0.666667 1.000000
vt 0.222222 0.000000
vt 0.333333 0.000000
vt 0.333333 0.561134
vt 0.222222 0.561134
vt 0.111111 0.561134
vt 0.000000 0.561134
vt 0.000000 0.000000
vt 0.111111 0.000000
vt 0.333334 0.561134
vt 0.333334 0.972478
vt 0.222223 0.972478
vt 0.222223 0.561147
vt 0.777778 0.554685
vt 0.888889 0.554685
vt 0.888890 1.000000
vt 0.777779 1.000000
vt 1.000000 0.411331
vt 0.888889 0.411331
vt 1.000000 0.000000
vt 0.444444 0.000000
vt 0.444444 0.561134
vt 0.333333 0.561134
vt 0.333333 0.000000
vt 0.666667 0.554685
vt 0.555556 0.554685
vt 0.555555 0.000000
vt 0.666666 0.000000
vt 0.111111 0.561134
vt 0.111111 0.000000
vt 0.222222 0.000000
vt 0.222222 0.561134
vt 0.666667 0.000000
vt 0.777778 0.000013
vt 0.777778 0.554685
vt 0.666667 0.554685
vt 0.777778 1.000000
vt 0.666668 1.000000
vt 0.666667 0.554686
vt 0.777778 0.554685
vt 0.555555 0.000000
vt 0.555555 0.554685
vt 0.444444 0.554685
vt 0.444444 0.000013
vt 0.444444 1.000000
vt 0.444444 0.554685
vt 0.555555 0.554685
vt 0.555556 1.000000
vt 0.480559 0.519229
vt 0.480559 0.475746
vt 0.552120 0.475746
vt 1.000000 0.000010
vt 0.947824 0.043483
vt 0.552120 0.043483
vt 0.052176 0.519229
vt 0.052176 0.956517
vt 0.000000 0.999990
vt 0.000000 0.000000
vt 0.052176 0.043483
vt 0.052176 0.475746
vt 0.552120 0.956517
vt 0.947824 0.956517
vt 1.000000 1.000000
vt 0.947812 0.475746
vt 0.552120 0.519229
vt 0.947824 0.519229
vt 0.480559 0.956517
vt 0.480559 0.043483
vt 0.677427 0.063297
vt 0.055618 0.063288
vt 0.000000 0.000000
vt 0.733045 0.000000
vt 0.055618 0.936712
vt 0.000000 1.000000
vt 0.733045 1.000000
vt 0.677427 0.936720
vt 0.933261 0.000000
vt 1.000000 0.000000
vt 1.000000 0.569253
vt 1.000000 0.682009
vt 1.000000 0.834137
vt 0.933261 0.834137
vt 0.866522 0.000000
vt 0.866522 1.000000
vt 0.799784 1.000000
vt 0.799784 0.000000
vt 0.799784 0.000000
vt 0.799784 1.000000
vt 0.733045 1.000000
vt 0.733045 0.000000
vt 0.866522 0.000000
vt 0.933261 0.000000
vt 0.933261 0.152129
vt 0.933261 0.264885
vt 0.866523 0.834138
vt 0.933261 0.834138
vt 0.442167 0.478381
vt 0.000863 0.478381
vt 0.000877 -0.000277
vt 0.442167 -0.000277
vt 0.000863 0.999126
vt 0.000877 0.525979
vt 0.442167 0.525979
vt 0.442167 0.999137
vt 0.521974 0.478381
vt 0.521974 -0.000277
vt 0.999722 -0.000278
vt 0.999722 0.478381
vt 0.521974 0.525979
vt 0.999722 0.525979
vt 0.999722 0.999125
vt 0.521974 0.999137
vt -1.127261 5.499105
vt -3.118737 5.499105
vt -3.480820 -4.499104
vt -3.480819 5.499105
vt 4.485082 -4.499105
vt 4.485082 5.499105
vt 0.750183 0.523835
vt 0.638048 0.523835
vt 0.638048 0.194905
vt 0.750183 0.194905
vt 0.000567 0.000567
vt 0.411730 0.000567
vt 0.411730 0.329497
vt 0.000567 0.329497
vt 0.636915 0.194905
vt 0.636915 0.606068
vt 0.525456 0.606068
vt 0.525456 0.194905
vt 0.412863 0.194905
vt 0.524322 0.194905
vt 0.524322 0.606068
vt 0.412863 0.606068
vt 0.854386 0.178820
vt 0.854386 0.193772
vt 0.793762 0.193772
vt 0.742927 0.178820
vt 0.862775 0.853899
vt 0.751317 0.853899
vt 0.781418 0.760894
vt 0.862775 0.760894
vt 0.931350 0.426652
vt 0.982184 0.194905
vt 0.862776 0.524969
vt 0.862776 0.617975
vt 0.781418 0.617974
vt 0.751317 0.524969
vt 0.947789 0.679711
vt 0.947789 0.911457
vt -4.999654 0.000000
vt 6.999710 0.000000
vt 6.999710 0.999999
vt -4.999657 1.000000
vt 0.000097 0.000193
vt 1.000000 0.000097
vt 1.000000 0.999904
vt 0.000097 1.000000
vt -6.999831 0.000000
vt 8.999533 -0.000000
vt 8.999851 0.999980
vt -6.999513 0.999978
vt -7.000000 0.000000
vt 8.999367 0.000000
vt 9.000000 1.000000
vt -6.999363 0.999998
vt -3.500092 0.000000
vt 0.999907 0.000000
vt 0.999907 1.000000
vt -3.500093 1.000000
vt 1.000595 1.000000
vt -3.559404 1.000000
vt -3.559404 0.000000
vt 1.000595 0.000000
vt -6.998836 -1.000024
vt 8.999606 -1.000025
vt 8.998833 2.999974
vt -6.999607 2.999975
vt -6.999585 -0.999927
vt 8.998856 -0.999927
vt 8.999634 2.999878
vt -6.998810 2.999878
vt 6.998574 3.000000
vt -4.999288 3.000000
vt -4.999286 -1.000000
vt 6.998572 -1.000000
vt 1.000000 3.000000
vt 0.000000 3.000000
vt 0.000000 -1.000000
vt 1.000000 -1.000000
vt 8.999330 2.997786
vt 4.475723 2.997789
vt 4.475723 1.673841
vt 8.999328 -0.998675
vt -6.999241 2.997790
vt -6.999239 -0.998675
vt -2.475634 1.673845
vt -2.475634 2.997791
vt 0.360632 0.660695
vt 0.360632 0.892441
vt 0.376748 0.892441
vt 0.376748 0.660695
vt 0.667303 0.524969
vt 0.683419 0.524969
vt 0.683419 0.936137
vt 0.667304 0.936137
vt 0.067331 0.938400
vt 0.478500 0.938399
vt 0.478500 0.954515
vt 0.067331 0.954514
vt 0.861570 0.869984
vt 0.861570 0.855032
vt 0.845455 0.855032
vt 0.845455 0.869984
vt 0.983318 0.936136
vt 0.983318 0.607207
vt 0.999433 0.607207
vt 0.999433 0.936136
vt 0.859890 0.839626
vt 0.840093 0.839626
vt 0.840089 0.000218
vt 0.859890 0.000218
vt 0.000218 0.911800
vt 0.000218 0.892003
vt 0.839626 0.892005
vt 0.839627 0.911802
vt 0.999782 0.356581
vt 0.960187 0.356581
vt 0.960187 0.000218
vt 0.999782 0.000218
vt 0.880124 0.800059
vt 0.880123 0.000218
vt 0.919719 0.000218
vt 0.919719 0.800059
vt 0.959751 0.000218
vt 0.959751 0.800059
vt 0.920155 0.800059
vt 0.920156 0.000218
vt 0.000218 0.832174
vt 0.800056 0.832172
vt 0.839652 0.871767
vt 0.000218 0.871768
vt 0.800056 0.475809
vt 0.839652 0.436214
vt 0.000219 0.475807
vt 0.000219 0.436211
vt 0.800057 0.396179
vt 0.839653 0.435775
vt 0.000220 0.435775
vt 0.000220 0.396181
vt 0.800058 0.039815
vt 0.839653 0.000219
vt 0.000218 0.039812
vt 0.000218 0.000218
vt 0.435773 0.912238
vt 0.435773 0.951834
vt 0.000218 0.951833
vt 0.000218 0.912238
vt 0.000218 0.872206
vt 0.839627 0.872204
vt 0.879687 0.839626
vt 0.879687 0.000218
vt 0.000058 0.954493
vt 0.000058 0.704522
vt 0.340926 0.999942
vt 0.000058 0.999942
vt 0.000059 0.000058
vt 0.340926 0.000058
vt 0.799829 0.000153
vt 0.799829 0.369955
vt 0.585199 0.369955
vt 0.585199 0.000153
vt 0.000153 0.999847
vt 0.000153 0.630045
vt 0.629739 0.630045
vt 0.629739 0.999847
vt 0.370262 0.000153
vt 0.584893 0.000153
vt 0.584893 0.369955
vt 0.370262 0.369955
vt 0.369956 0.629739
vt 0.000155 0.629739
vt 0.000155 0.186167
vt 0.272655 0.186167
vt 0.272655 0.028770
vt 0.000153 0.028770
vt 0.000153 0.000153
vt 0.369956 0.000153
vt 0.903095 0.112702
vt 0.886980 0.112702
vt 0.886980 0.000567
vt 0.903095 0.000567
vt 0.636753 0.913675
vt 0.620638 0.913675
vt 0.620638 0.801540
vt 0.636753 0.801540
vt 0.948923 0.607201
vt 0.965038 0.607201
vt 0.965038 0.936131
vt 0.948923 0.936131
vt 0.360632 0.660695
vt 0.376748 0.660695
vt 0.376748 0.892441
vt 0.360632 0.892441
vt 0.861570 0.869984
vt 0.845455 0.869984
vt 0.845455 0.855032
vt 0.861570 0.855032
vn 0.0000 -1.0000 0.0000
vn -1.0000 0.0000 0.0000
vn -1.0000 0.0000 -0.0001
vn 1.0000 0.0000 -0.0000
vn 0.0000 1.0000 -0.0001
vn 0.0000 1.0000 0.0000
vn 0.0000 0.0000 -1.0000
vn -0.0000 0.0000 1.0000
usemtl BathroomWindowEdgesLight
s off
f 18/1/1 3/2/1 23/3/1 57/4/1
f 59/5/2 15/6/2 12/7/2 13/8/2
f 3/9/3 24/10/3 56/11/3 23/12/3
f 62/13/4 27/14/4 25/15/4 52/16/4
f 14/17/5 30/18/5 12/19/5 15/20/5
f 59/21/1 13/22/1 11/23/1 2/24/1
f 14/25/4 2/26/4 11/27/4 30/28/4
f 29/29/4 17/30/4 21/31/4 22/32/4
f 55/33/4 61/34/4 18/1/4 57/35/4
f 19/36/6 22/37/6 21/38/6 28/39/6
f 62/40/6 52/41/6 54/42/6 20/43/6
f 16/44/1 17/45/1 29/46/1 58/47/1
f 26/48/1 53/49/1 25/50/1 27/51/1
f 53/52/3 26/53/3 20/54/3 54/55/3
f 24/56/6 61/57/6 55/58/6 56/59/6
f 58/60/2 19/61/2 28/62/2 16/63/2
usemtl BathroomWindowEdges
f 108/64/7 118/65/7 107/66/7
f 101/67/7 111/68/7 103/69/7
f 115/70/7 114/71/7 119/72/7
f 120/73/7 112/74/7 113/75/7
f 102/76/7 105/77/7 104/78/7
f 107/66/7 117/79/7 116/80/7
f 117/79/7 106/81/7 116/80/7
f 116/80/7 102/76/7 110/82/7
f 109/83/7 103/69/7 107/66/7
f 115/70/7 113/75/7 108/64/7
f 113/75/7 118/65/7 108/64/7
f 118/65/7 109/83/7 107/66/7
f 107/66/7 116/80/7 108/64/7
f 116/80/7 110/82/7 108/64/7
f 112/74/7 120/73/7 109/83/7
f 106/81/7 117/79/7 111/68/7 101/67/7 104/78/7
f 104/78/7 105/77/7 106/81/7
f 101/67/7 103/69/7 109/83/7 120/73/7
f 119/72/7 114/71/7 110/82/7
f 115/70/7 119/72/7 120/73/7 113/75/7
f 110/82/7 102/76/7 104/78/7 119/72/7
usemtl BathroomWindowFrame
f 63/84/7 9/85/7 5/86/7 10/87/7
f 5/86/7 9/85/7 1/88/7 8/89/7
f 7/90/7 64/91/7 63/84/7 10/87/7
f 64/91/7 7/90/7 8/89/7 1/88/7
f 7/92/4 47/93/4 75/94/4 74/95/4 4/96/4 8/97/4
f 48/98/6 47/99/6 7/100/6 10/101/6
f 5/102/1 8/103/1 4/104/1 6/105/1
f 5/106/2 6/107/2 65/108/2
f 5/106/2 65/108/2 66/109/2
f 10/110/2 5/106/2 66/109/2 48/111/2
usemtl BathroomGlassWindow
f 123/112/7 122/113/7 130/114/7 121/115/7
f 135/116/7 134/117/7 136/118/7 127/119/7
f 129/120/7 126/121/7 125/122/7 124/123/7
f 131/124/7 128/125/7 132/126/7 133/127/7
usemtl BathroomFloor
f 89/128/6 88/129/6 45/130/6
f 88/129/6 41/131/6 45/130/6
f 45/130/6 69/132/6 89/128/6
f 69/132/6 98/133/6 89/128/6
usemtl BathroomCeiling
f 50/134/1 40/135/1 39/136/1 44/137/1
f 60/138/1 50/139/1 44/140/1 46/141/1
usemtl BathroomWall
f 68/142/4 80/143/4 50/144/4 60/145/4
f 44/146/2 77/147/2 73/148/2 46/149/2
f 80/150/8 97/151/8 49/152/8 50/153/8
f 68/154/7 60/155/7 48/156/7 66/157/7
f 50/153/8 49/152/8 51/158/8 44/159/8
f 73/160/7 75/161/7 47/162/7 46/163/7
f 60/155/7 46/163/7 47/162/7 48/156/7
f 51/158/8 95/164/8 77/165/8 44/159/8
usemtl BathroomFeatureTile
f 77/166/8 95/167/8 94/168/8 76/169/8
f 79/170/8 96/171/8 97/172/8 80/173/8
f 73/174/2 77/175/2 76/176/2 72/177/2
f 67/178/4 79/179/4 80/180/4 68/181/4
f 65/182/7 67/183/7 68/184/7 66/185/7
f 72/186/7 74/187/7 75/188/7 73/189/7
usemtl BathroomWallTiles
f 71/190/4 93/191/4 79/192/4 67/193/4
f 78/194/2 70/195/2 72/196/2 76/197/2
f 76/198/8 94/199/8 100/200/8 78/201/8
f 96/202/8 79/203/8 93/204/8 99/205/8
f 67/206/7 65/207/7 6/208/7 71/209/7
f 72/210/7 70/211/7 4/212/7 74/213/7
f 4/212/7 70/211/7 71/209/7 6/208/7
usemtl BathroomWallRunner
f 78/214/8 100/215/8 89/216/8 98/217/8
f 78/218/2 98/219/2 69/220/2 70/221/2
f 45/222/4 41/223/4 93/224/4 71/225/4
f 41/226/8 88/227/8 99/228/8 93/229/8
f 69/230/7 45/231/7 71/232/7 70/233/7
usemtl BathroomDoorFrame
f 88/234/2 35/235/2 38/236/2 49/237/2
f 34/238/4 89/239/4 51/240/4 37/241/4
f 32/242/1 86/243/1 87/244/1 33/245/1
f 42/246/4 86/247/4 32/248/4 83/249/4
f 84/250/2 33/251/2 87/252/2 43/253/2
f 83/254/8 32/255/8 38/256/8 35/257/8
f 32/255/8 33/258/8 37/259/8 38/256/8
f 84/260/8 34/261/8 37/259/8 33/258/8
f 87/262/7 82/263/7 81/264/7 43/265/7
f 87/262/7 86/266/7 36/267/7 82/263/7
f 86/266/7 42/268/7 85/269/7 36/267/7
f 37/270/6 82/271/6 36/272/6 38/273/6
f 81/274/4 82/275/4 51/240/4 89/239/4
f 85/276/2 88/234/2 49/237/2 36/277/2
usemtl HallwayFloor
f 88/278/6 89/279/6 31/280/6
f 31/280/6 41/281/6 88/278/6
f 89/279/6 98/282/6 90/283/6 31/280/6
usemtl HallwayWall
f 50/284/4 93/285/4 92/286/4 40/287/4
f 40/288/8 92/289/8 91/290/8 39/291/8
f 91/292/2 78/293/2 44/294/2 39/295/2
f 44/296/7 78/297/7 100/298/7 51/299/7 49/300/7 99/301/7 93/302/7 50/303/7
usemtl HallwayWallRunner
f 31/304/4 92/305/4 93/306/4 41/307/4
f 98/308/2 78/309/2 91/310/2 90/311/2
f 90/312/8 91/313/8 92/314/8 31/315/8
f 138/316/7 142/317/7 140/318/7 144/319/7
f 137/320/7 141/321/7 143/322/7 139/323/7
