# Blender v2.82 (sub 7) OBJ File: 'ENVO_AsianCity.blend'
# www.blender.org
mtllib ENVO_AsianCity.mtl
o buildingsCenter_ENVO_asiancity.001
v -2.726432 0.216998 6.892580
v 1.477287 0.216998 6.892580
v 1.477287 6.779425 0.718899
v -2.726432 6.779424 6.892580
v 1.477287 6.779424 6.892580
v -2.213515 0.216220 0.698778
v -2.213515 5.758482 0.698778
v 0.914012 5.758482 0.698778
v -2.213515 0.217887 6.876460
v 0.914012 0.217887 6.876460
v 0.914012 0.216220 0.698778
v -2.213515 0.217886 11.426792
v 0.914012 5.736581 11.426793
v -2.213515 5.736581 11.426793
v -2.213515 0.216221 -3.851555
v -2.726432 0.216998 0.718898
v 1.477287 0.216998 0.718898
v -2.726432 0.228671 1.121650
v -2.726432 6.779425 0.718899
v -2.465528 0.201657 7.199618
v 1.210156 0.201658 0.202202
v 1.237392 0.201657 7.254089
v -2.465527 0.201656 11.664909
v 1.237392 0.201656 11.664909
v -3.091722 0.201657 7.199618
v -3.091722 0.201658 0.229326
v -2.465527 0.245789 11.664909
v -2.465528 0.245789 7.199618
v 1.863586 0.201658 0.202202
v 1.210156 0.245790 0.202202
v 1.237392 0.245789 7.254089
v -2.492763 0.201658 0.202202
v -2.492763 0.245790 0.202202
v 1.863586 0.201657 7.254089
v 1.863586 0.245789 7.254089
v -3.091722 0.245790 0.229326
v 1.210156 0.201658 -4.072552
v 1.210156 0.245791 -4.072552
v 1.237392 0.245789 11.664909
v -3.091722 0.245789 7.199618
v 1.863586 0.245790 0.202202
v -2.492763 0.245791 -4.072552
v -2.492763 0.201658 -4.072552
v -2.724987 2.009429 6.916147
v -3.883775 1.672375 6.916147
v -2.756225 2.076462 0.742911
v -3.852538 1.605342 6.916147
v -3.883775 1.672376 0.742910
v -2.724987 2.009429 0.742910
v -3.852538 1.605343 0.742910
v -2.756225 2.076461 6.916147
v 0.914012 0.217886 11.426792
v 0.914012 5.736582 6.876461
v -2.213515 5.758482 -3.851555
v 0.914012 0.216221 -3.851555
v 0.914012 5.758482 -3.851555
v -2.213515 5.736582 6.876461
v -2.726432 1.964740 6.460146
v -0.886534 0.228671 1.121650
v -2.726432 0.216998 6.460146
v -0.886534 0.216998 6.460146
v -0.886534 0.216998 1.121650
v -0.886534 1.964740 6.460146
v -0.886534 1.964741 1.121651
v -2.726432 1.964741 1.121651
vt 1.000000 1.000000
vt 0.000000 1.000000
vt 0.000000 0.000000
vt 1.000000 0.000000
vt 1.000000 1.000000
vt 0.000000 1.000000
vt 0.000000 0.000000
vt 1.000000 0.000000
vt 0.000000 0.000000
vt 1.000000 0.000000
vt 1.000000 1.000000
vt 0.000000 1.000000
vt 0.000000 1.000000
vt 0.000000 0.000000
vt 1.000000 0.000000
vt 1.000000 1.000000
vt 0.000000 0.000000
vt 1.000000 0.000000
vt 1.000000 1.000000
vt 0.000000 1.000000
vt 1.000000 1.000000
vt 0.000000 1.000000
vt 0.000000 0.000000
vt 1.000000 0.000000
vt 1.000000 0.000000
vt 1.000000 1.000000
vt 0.000000 1.000000
vt 0.000000 0.000000
vt 0.999512 -0.999512
vt 0.000488 -0.999512
vt 0.000488 -0.007202
vt 0.000488 -0.000488
vt 0.999512 -0.000488
vt 0.999512 -0.000488
vt 0.999512 -0.999512
vt 0.000488 -0.999512
vt 0.000488 -0.000488
vt 0.000488 -0.000488
vt 0.999512 -0.000488
vt 0.999512 -0.999512
vt 0.999512 -0.007202
vt 0.999512 -0.999512
vt 0.000488 -0.999512
vt 0.000488 -0.007202
vt 1.226929 1.855103
vt 1.487305 1.855103
vt 1.487305 1.855103
vt 1.226929 1.855103
vt 1.226929 3.466858
vt -0.248596 3.466858
vt -0.248596 3.466858
vt 1.226929 3.466858
vt -0.237793 -0.783203
vt -0.237793 -2.466858
vt 1.237793 -2.466858
vt 1.237793 -0.803772
vt -0.487305 1.844849
vt -0.487305 -0.783203
vt -0.487305 -0.783203
vt -0.487305 1.844849
vt -0.237793 -0.783203
vt -0.237793 -2.466858
vt 1.487305 -0.803772
vt 1.487305 -0.803772
vt 1.237793 -0.803772
vt -0.248596 1.855103
vt -0.248596 1.855103
vt 1.237793 -2.466858
vt -0.845703 -0.999512
vt -0.845703 -0.027466
vt -0.845703 -0.000488
vt -0.845703 -0.972534
vt 1.845703 -0.000488
vt 1.845703 -0.027466
vt 1.845703 -0.999512
vt 1.845703 -0.972534
vt 0.000000 1.000000
vt 0.000000 0.000000
vt 1.000000 0.000000
vt 0.000000 0.000000
vt 0.065247 0.001770
vt 0.065247 0.266357
vt 1.000000 0.000000
vt 1.000000 1.000000
vt 0.929932 0.266357
vt 0.929932 0.000000
vt 0.000000 1.000000
vt 0.000000 0.000000
vt 1.000000 0.000000
vt 1.000000 1.000000
vt 0.000000 0.000000
vt 1.000000 0.000000
vt 0.000000 1.000000
vt 0.000000 0.000000
vt 1.000000 0.000000
vt 1.000000 1.000000
vt 0.000000 0.000000
vt 1.000000 0.000000
vn 0.0000 1.0000 0.0000
vn 0.0000 -0.0000 1.0000
vn 0.0000 0.0000 -1.0000
vn -1.0000 0.0000 0.0000
vn -0.0000 -1.0000 -0.0000
vn 1.0000 0.0000 0.0000
vn -0.0452 0.0000 -0.9990
vn -0.9064 -0.4224 -0.0000
vn 0.3374 -0.9414 -0.0000
vn -0.3374 0.9414 0.0000
vn 0.9064 0.4224 0.0000
usemtl concrete
s off
f 56/1/1 54/2/1 7/3/1 8/4/1
f 13/5/2 14/6/2 12/7/2 52/8/2
f 55/9/3 15/10/3 54/11/3 56/12/3
f 4/13/2 1/14/2 2/15/2 5/16/2
f 14/17/1 13/18/1 53/19/1 57/20/1
f 19/21/3 3/22/3 17/23/3 16/24/3
f 5/25/1 3/26/1 19/27/1 4/28/1
usemtl wall
f 63/29/4 64/30/4 59/31/4 62/32/4 61/33/4
f 60/34/3 58/35/3 63/36/3 61/37/3
f 63/38/5 58/39/5 65/40/5 64/30/5
f 59/41/2 64/42/2 65/43/2 18/44/2
usemtl tiles
f 30/45/3 41/46/3 29/47/3 21/48/3
f 37/49/3 43/50/3 42/51/3 38/52/3
f 28/53/1 27/54/1 39/55/1 31/56/1
f 26/57/4 25/58/4 40/59/4 36/60/4
f 20/61/4 23/62/4 27/54/4 28/53/4
f 34/63/6 29/47/6 41/46/6 35/64/6
f 22/65/2 34/63/2 35/64/2 31/56/2
f 21/48/6 37/49/6 38/52/6 30/45/6
f 33/66/4 42/51/4 43/50/4 32/67/4
f 32/67/7 26/57/7 36/60/7 33/66/7
f 23/62/2 24/68/2 39/55/2 27/54/2
f 28/53/2 40/59/2 25/58/2 20/61/2
f 28/53/1 31/56/1 30/45/1 33/66/1
f 42/51/1 33/66/1 30/45/1 38/52/1
f 36/60/1 40/59/1 28/53/1 33/66/1
f 41/46/1 30/45/1 31/56/1 35/64/1
f 31/56/6 39/55/6 24/68/6 22/65/6
usemtl awningGreen
f 49/69/3 50/70/3 48/71/3 46/72/3
f 45/73/8 48/71/8 50/70/8 47/74/8
f 47/74/9 50/70/9 49/69/9 44/75/9
f 46/72/10 48/71/10 45/73/10 51/76/10
f 47/74/2 44/75/2 51/76/2 45/73/2
f 46/72/11 51/76/11 44/75/11 49/69/11
usemtl building1
f 3/26/6 5/77/6 2/78/6 17/79/6
f 16/80/4 18/81/4 65/82/4 19/27/4
f 1/83/4 4/84/4 58/85/4 60/86/4
f 58/85/4 4/84/4 19/27/4 65/82/4
usemtl building2
f 56/1/6 8/87/6 11/88/6 55/89/6
f 14/90/4 57/20/4 9/91/4 12/92/4
usemtl building6
f 53/19/6 13/93/6 52/94/6 10/95/6
f 7/96/4 54/2/4 15/97/4 6/98/4
o road_ENVO_asiancity.002
v -16.676689 0.201659 -15.464113
v -16.676687 0.201655 23.114964
v 15.681141 0.201659 -15.464113
v 15.681141 0.201655 23.114964
vt 5.701355 6.329468
vt 5.701355 -7.329468
vt -4.701355 -7.329468
vt -4.701355 6.329468
vn 0.0000 1.0000 0.0000
usemtl road
s off
f 69/99/12 68/100/12 66/101/12 67/102/12
o buildingsSouth_ENVO_asiancity.003
v -9.779987 0.224667 20.374605
v -3.632986 0.224667 20.374605
v -3.627983 -0.592955 24.945726
v 2.717893 4.968983 20.366266
v -3.627983 4.968982 24.945726
v -3.627983 -0.592955 20.366266
v 2.693214 4.257636 20.388725
v 2.693214 -0.592954 16.128977
v 2.693214 -0.592955 20.388725
v 10.680335 -0.592510 20.388725
v 10.680335 4.257636 20.388725
v 10.680335 4.257636 16.128977
v -9.779987 0.224667 16.165884
v -3.632986 6.838118 16.165886
v -3.632986 6.838118 20.374607
v -9.779987 6.838118 20.374607
v -3.627983 4.968983 20.366268
v 2.717893 -0.592955 20.366268
v 2.717893 -0.592955 24.945726
v 2.717893 4.968982 24.945839
v 2.693214 4.257636 16.128977
v -14.465274 0.241452 20.818710
v 11.237386 0.241452 20.818710
v 11.237386 0.188650 15.728893
v 11.237386 0.241453 15.728893
v -9.290525 0.241453 15.728893
v -9.290525 0.188649 15.728893
v 10.680335 -0.592954 16.128977
v -3.632986 0.224667 16.165884
v -9.779987 6.838118 16.165886
vt 1.000000 1.000000
vt 0.000000 1.000000
vt 0.000000 0.000000
vt 1.000000 0.000000
vt 1.000000 1.000000
vt 0.000000 1.000000
vt 0.000000 0.000000
vt 1.000000 0.000000
vt 1.000000 1.000000
vt 0.000000 1.000000
vt 0.000000 0.000000
vt 1.000000 0.000000
vt 1.000000 1.000000
vt 0.000000 0.000000
vt 1.000000 0.000000
vt 0.000000 0.000000
vt 1.000000 0.000000
vt 0.000000 1.000000
vt 0.000000 0.000000
vt 1.000000 0.000000
vt 1.000000 1.000000
vt 0.000000 1.000000
vt 1.000000 1.000000
vt 0.000000 0.000000
vt 1.000000 0.000000
vt 0.000000 0.000000
vt 1.000000 0.000000
vt 0.000000 1.000000
vt 0.000000 0.000000
vt 1.000000 0.000000
vt 1.000000 1.000000
vt 0.000000 1.000000
vt 0.000000 0.000000
vt 1.000000 0.000000
vt 1.000000 1.000000
vt 0.000000 0.000000
vt 1.000000 0.000000
vt 1.000000 1.000000
vt 0.000000 1.000000
vt 1.000000 1.000000
vt 0.000000 1.000000
vt 0.000000 0.000000
vt 1.000000 0.000000
vt 0.000000 1.000000
vt 0.000000 0.000000
vt 1.000000 0.000000
vt 6.088928 -0.755981
vt -8.856323 -0.755981
vt -8.856323 -0.244019
vt 6.088928 -0.244019
vt 9.856323 10.703003
vt 9.856323 7.357483
vt -5.088928 7.357483
vt -8.856323 10.703003
vt 1.000000 1.000000
vt 0.000000 1.000000
vt 0.000000 0.000000
vt 1.000000 0.000000
vt 1.000000 1.000000
vt 0.000000 1.000000
vt 0.000000 0.000000
vt 1.000000 0.000000
vn -1.0000 0.0000 0.0000
vn 0.0000 1.0000 0.0000
vn 0.0000 -0.0000 1.0000
vn 1.0000 0.0000 0.0000
vn 0.0000 0.0000 -1.0000
usemtl concrete
s off
f 76/103/13 90/104/13 77/105/13 78/106/13
f 83/107/14 99/108/14 85/109/14 84/110/14
f 84/111/15 85/112/15 70/113/15 71/114/15
f 81/115/14 90/104/14 76/116/14 80/117/14
f 79/118/16 97/119/16 81/115/16 80/120/16
f 87/121/17 75/122/17 86/123/17 73/124/17
f 85/125/13 99/108/13 82/126/13 70/127/13
f 71/128/16 98/129/16 83/107/16 84/130/16
f 75/131/13 72/132/13 74/133/13 86/134/13
f 74/135/14 89/136/14 73/137/14 86/134/14
f 78/138/15 79/139/15 80/140/15 76/141/15
f 89/142/15 74/143/15 72/144/15 88/145/15
f 73/137/16 89/146/16 88/147/16 87/148/16
usemtl tiles
f 95/149/17 94/150/17 93/151/17 96/152/17
f 92/153/14 94/154/14 95/155/14 91/156/14
usemtl building4
f 90/157/17 81/158/17 97/159/17 77/160/17
usemtl building6
f 99/161/17 83/162/17 98/163/17 82/164/17
o buildingsBack_ENVO_asiancity.004
v 18.341631 6.824223 14.952292
v 18.341631 6.824223 10.664087
v 18.341631 0.210771 14.952291
v 17.402618 0.210771 14.994646
v 17.402618 6.824223 14.994647
v 13.146094 6.824223 20.573706
v 17.402618 0.210771 20.573702
v 17.402618 6.824223 20.573706
v 13.146094 0.210771 20.573702
v 12.720332 6.824223 10.664087
v 12.720332 6.824223 14.952292
v 18.341631 0.210772 10.664086
v 13.146094 6.824223 14.994647
v 13.146094 0.210771 14.994646
v 12.720332 0.210772 10.664086
v 12.720332 0.210771 14.952291
vt 1.000000 1.000000
vt 0.000000 1.000000
vt 0.000000 0.000000
vt 1.000000 0.000000
vt 0.000000 0.000000
vt 1.000000 0.000000
vt 1.000000 1.000000
vt 0.000000 1.000000
vt 0.000000 0.000000
vt 1.000000 0.000000
vt 1.000000 1.000000
vt 0.000000 1.000000
vt 0.000000 0.000000
vt 1.000000 0.000000
vt 1.000000 1.000000
vt 0.000000 1.000000
vt 0.000000 0.000000
vt 1.000000 0.000000
vt 0.000000 1.000000
vt 0.000000 0.000000
vt 1.000000 0.000000
vt 1.000000 1.000000
vt 0.000000 1.000000
vt 0.000000 0.000000
vt 1.000000 0.000000
vt 1.000000 1.000000
vt 0.000000 1.000000
vt 0.000000 1.000000
vt 0.000000 0.000000
vt 1.000000 0.000000
vt 0.000000 0.000000
vt 1.000000 0.000000
vt 1.000000 1.000000
vt 0.000000 0.000000
vt 1.000000 0.000000
vt 1.000000 1.000000
vn 0.0000 -0.0000 1.0000
vn 0.0000 0.0000 -1.0000
vn 0.0000 1.0000 0.0000
vn 1.0000 0.0000 0.0000
vn -1.0000 0.0000 0.0000
usemtl concrete
s off
f 107/165/18 105/166/18 108/167/18 106/168/18
f 103/169/19 113/170/19 112/171/19 104/172/19
f 111/173/19 114/174/19 109/175/19 101/176/19
f 105/177/20 107/178/20 104/179/20 112/180/20
f 106/181/21 103/182/21 104/179/21 107/183/21
f 110/184/20 100/185/20 101/186/20 109/187/20
f 115/188/18 102/189/18 100/190/18 110/191/18
f 101/186/21 100/192/21 102/193/21 111/194/21
usemtl building2
f 114/195/22 115/196/22 110/197/22 109/187/22
usemtl building6
f 113/198/22 108/199/22 105/200/22 112/180/22
o buildingsEast_ENVO_asiancity.005
v 10.681891 0.204547 8.236124
v 10.681891 8.684689 -2.397511
v 6.425369 0.204548 -2.397512
v 10.681891 8.684688 8.236125
v 10.681891 5.630643 -8.540066
v 10.681891 0.167864 -8.540067
v 9.897064 0.222333 14.392130
v 10.681891 0.204548 -2.397512
v 6.425369 0.204547 8.236124
v 10.681891 0.167864 -2.406628
v 6.425369 5.630643 -8.540066
v 6.425369 5.630642 -2.406627
v 9.897064 6.534971 8.313607
v 9.897064 0.222334 8.313606
v 9.897064 6.534971 14.392131
v 10.681891 5.630642 -2.406627
v 6.425369 0.167864 -8.540067
v 6.810891 6.534971 14.392131
v 6.810891 0.222334 8.313606
v 6.425369 8.684689 -2.397511
v 5.379748 2.137047 2.314456
v 6.507298 2.541133 2.314456
v 5.348400 2.204079 8.219893
v 6.507298 2.541132 8.219893
v 6.476061 2.608166 2.314456
v 5.379748 2.137046 8.219893
v 6.476061 2.608165 8.219893
v 5.348400 2.204079 2.314456
v 5.954917 0.188650 14.868140
v 11.237386 0.241457 -13.270042
v 11.237386 0.241453 14.868140
v 5.954917 0.188652 -8.080953
v 5.954917 0.241456 -8.080953
v 11.237386 0.188650 14.868140
v 5.954917 0.241453 14.868140
v 6.425369 2.322804 2.590146
v 6.425369 2.322803 7.847045
v 6.425369 0.204547 7.847045
v 8.195789 0.307931 7.847045
v 6.425369 8.684688 8.236125
v 6.425369 0.204548 2.590145
v 6.425369 0.167864 -2.406628
v 6.810891 6.534971 8.313607
v 6.810891 0.222333 14.392130
v 8.195789 2.322804 2.590146
v 8.195789 2.322803 7.847045
v 6.425369 0.307931 7.847045
v 8.195789 0.204547 7.847045
v 8.195789 0.204548 2.590146
vt 0.000000 0.000000
vt 1.000000 0.000000
vt 1.000000 1.000000
vt 0.000000 1.000000
vt 1.000000 1.000000
vt 0.000000 1.000000
vt 0.000000 0.000000
vt 1.000000 0.000000
vt 1.000000 0.000000
vt 1.000000 1.000000
vt 0.000000 1.000000
vt 0.000000 0.000000
vt 0.000000 0.000000
vt 1.000000 0.000000
vt 0.000000 1.000000
vt 1.000000 1.000000
vt 0.000000 1.000000
vt 0.000000 0.000000
vt 1.000000 0.000000
vt 0.000000 0.000000
vt 1.000000 0.000000
vt 1.000000 1.000000
vt 0.000000 1.000000
vt 0.000000 0.000000
vt 1.000000 0.000000
vt 0.000000 1.000000
vt 1.000000 1.000000
vt 0.000000 1.000000
vt 0.000000 0.000000
vt 1.000000 0.000000
vt 0.000000 0.000000
vt 1.000000 0.000000
vt 1.000000 1.000000
vt 0.000000 1.000000
vt 1.000000 1.000000
vt 0.000000 1.000000
vt 0.000000 0.000000
vt 1.000000 0.000000
vt 0.000000 0.000000
vt 1.000000 0.000000
vt 1.000000 1.000000
vt 0.000000 1.000000
vt 0.000000 1.000000
vt 0.000000 0.000000
vt 1.000000 0.000000
vt 0.000488 -0.999512
vt 0.000488 -0.000488
vt 0.999512 -0.049194
vt 0.999512 -0.999512
vt 0.000488 -0.999512
vt 0.000488 -0.049194
vt 0.999512 -0.049194
vt 0.999512 -0.999512
vt 0.999512 -0.000488
vt 0.999512 -0.999512
vt 0.000488 -0.999512
vt 0.000488 -0.000488
vt 0.999512 -0.000488
vt 0.999512 -0.999512
vt 0.000488 -0.000488
vt 0.999512 -0.000488
vt 9.856323 -0.244019
vt 9.856323 -0.755981
vt 6.010376 -0.755981
vt 6.010376 -0.244019
vt 7.791748 -0.244019
vt 7.791748 -0.755981
vt -7.292297 -0.755981
vt -7.292297 -0.244019
vt 9.856323 6.791748
vt 9.856323 -11.703003
vt 6.010376 -8.292297
vt 6.010376 6.791748
vt 0.999390 -0.154724
vt 0.991882 -0.999512
vt 0.991943 -0.999451
vt 0.999512 -0.154663
vt 0.000610 -0.845276
vt 0.008118 -0.000488
vt 0.000488 -0.845337
vt 0.008057 -0.000549
vt 0.000000 0.000000
vt 0.469055 0.000000
vt 0.469055 0.249756
vt 0.963440 0.249756
vt 1.000000 1.000000
vt 0.963440 0.012207
vt 0.963440 0.000000
vt 0.963440 0.000000
vt 0.963440 0.012207
vt 1.000000 0.000000
vt 1.000000 1.000000
vt 0.000000 0.000000
vt 1.000000 0.000000
vt 0.000000 0.000000
vt 1.000000 0.000000
vt 1.000000 1.000000
vn 0.0000 1.0000 0.0000
vn 0.0000 -0.0000 1.0000
vn 0.0000 0.0000 -1.0000
vn 1.0000 0.0000 0.0000
vn -1.0000 0.0000 0.0000
vn 0.0000 -1.0000 -0.0000
vn -0.3373 0.9414 0.0000
vn 0.3374 -0.9414 -0.0000
vn -0.9058 -0.4236 -0.0000
usemtl concrete
s off
f 133/201/23 130/202/23 128/203/23 158/204/23
f 119/205/24 155/206/24 124/207/24 116/208/24
f 118/209/25 135/210/25 117/211/25 123/212/25
f 122/213/26 129/214/26 128/203/26 130/215/26
f 131/216/24 127/217/24 157/218/24 125/219/24
f 125/220/26 121/221/26 120/222/26 131/223/26
f 127/224/23 131/225/23 120/222/23 126/226/23
f 117/227/26 119/228/26 116/229/26 123/230/26
f 121/231/25 132/232/25 126/233/25 120/234/25
f 130/235/24 133/236/24 159/237/24 122/238/24
f 129/239/25 134/240/25 158/241/25 128/242/25
f 135/243/23 155/244/23 119/245/23 117/227/23
usemtl wall
f 160/246/27 164/247/27 154/248/27 161/249/27
f 161/250/25 154/251/25 162/252/25 152/253/25
f 164/254/24 160/255/24 151/256/24 156/257/24
f 152/258/28 151/259/28 160/246/28 161/260/28
f 164/247/27 163/261/27 154/248/27
usemtl tiles
f 149/262/24 146/263/24 150/264/24 144/265/24
f 144/266/27 150/267/27 148/268/27 147/269/27
f 146/270/23 145/271/23 148/272/23 150/273/23
usemtl awningPink
f 141/274/24 139/275/24 142/276/24 138/277/24
f 138/277/29 142/276/29 140/278/29 143/279/29
f 137/280/30 139/275/30 141/274/30 136/281/30
f 137/280/25 136/281/25 143/279/25 140/278/25
f 138/277/31 143/279/31 136/281/31 141/274/31
usemtl building3
f 118/282/27 156/283/27 151/284/27 135/243/27
f 152/285/27 155/286/27 135/243/27 151/284/27
f 154/287/25 163/288/25 153/289/25 162/290/25
f 162/290/27 153/289/27 124/291/27
f 124/291/27 155/286/27 152/285/27 162/290/27
usemtl building4
f 127/292/27 126/226/27 132/293/27 157/294/27
usemtl building5
f 134/295/27 159/296/27 133/297/27 158/204/27
o buildingsNorth_ENVO_asiancity.006
v -4.993317 4.920519 -17.318573
v 0.906564 -0.592950 -17.318573
v 0.906564 -0.592951 -12.807150
v 0.906564 4.920518 -12.807149
v 0.830304 0.211108 -12.800035
v 6.454717 6.824559 -12.800035
v 0.830304 6.824559 -12.800035
v 6.454717 0.211108 -8.532063
v 6.454717 0.211108 -12.800035
v -9.824119 4.960761 -12.791363
v -4.976642 0.172312 -12.791364
v -4.976642 4.960761 -12.791363
v -4.993317 4.920518 -12.807149
v 0.906564 4.920519 -17.318573
v -4.993317 -0.592950 -17.318573
v -4.993317 -0.592951 -12.807150
v 6.454717 6.824559 -8.532062
v -9.824119 0.172312 -12.791364
v 11.237386 0.241457 -13.270042
v -14.465274 0.241457 -13.270042
v -9.290525 0.188653 -8.080953
v -9.290525 0.241456 -8.080953
v 5.954917 0.188652 -8.080953
v 5.954917 0.241456 -8.080953
v -4.976642 4.960760 -8.529394
v -9.824119 4.960760 -8.529394
v -9.824119 0.172311 -8.529395
v -4.976642 0.172311 -8.529395
v 0.830304 6.824559 -8.532062
v 0.830304 0.211108 -8.532063
vt 0.000000 0.000000
vt 1.000000 0.000000
vt 1.000000 1.000000
vt 0.000000 1.000000
vt 0.000000 0.000000
vt 1.000000 0.000000
vt 1.000000 1.000000
vt 0.000000 1.000000
vt 0.000000 0.000000
vt 1.000000 0.000000
vt 1.000000 1.000000
vt 0.000000 1.000000
vt 0.000000 0.000000
vt 1.000000 0.000000
vt 1.000000 1.000000
vt 0.000000 0.000000
vt 1.000000 0.000000
vt 1.000000 1.000000
vt 0.000488 0.000488
vt 0.999512 0.000488
vt 0.999512 0.999512
vt 0.000488 0.999512
vt 0.999512 0.999512
vt 0.000488 0.999512
vt 0.000488 0.000488
vt 0.999512 0.000488
vt 0.000488 0.000488
vt 0.999512 0.000488
vt 0.999512 0.999512
vt 0.000488 0.000488
vt 0.999512 0.000488
vt 0.000488 0.999512
vt 0.000488 0.000488
vt 0.999512 0.000488
vt 0.999512 0.999512
vt 0.000488 0.999512
vt 1.000000 1.000000
vt 0.000000 1.000000
vt 0.000000 0.000000
vt 1.000000 0.000000
vt 0.000000 1.000000
vt 0.000000 0.000000
vt 1.000000 0.000000
vt 0.000000 1.000000
vt 0.000000 0.000000
vt 1.000000 0.000000
vt 6.010376 -0.244019
vt 6.010376 -0.755981
vt -5.088928 -0.755981
vt -5.088928 -0.244019
vt 6.010376 -8.292297
vt 9.856323 -11.703003
vt -8.856323 -11.703003
vt -5.088928 -8.292297
vt 0.000000 0.000000
vt 1.000000 0.000000
vt 1.000000 1.000000
vt 0.000000 1.000000
vt 0.000000 0.000000
vt 1.000000 0.000000
vt 1.000000 1.000000
vt 0.000000 1.000000
vn 0.0000 1.0000 0.0000
vn 0.0000 0.0000 -1.0000
vn -1.0000 0.0000 0.0000
vn 0.0000 -0.0000 1.0000
vn 1.0000 0.0000 0.0000
usemtl concrete
s off
f 190/298/32 189/299/32 176/300/32 174/301/32
f 173/302/33 169/303/33 171/304/33 170/305/33
f 169/306/34 194/307/34 193/308/34 171/309/34
f 182/310/34 191/311/34 190/312/34 174/301/34
f 193/313/32 181/314/32 170/315/32 171/309/32
f 179/316/34 180/317/34 177/318/34 165/319/34
f 168/320/35 177/321/35 180/322/35 167/323/35
f 177/324/32 168/325/32 178/326/32 165/319/32
f 167/327/36 166/328/36 178/326/36 168/329/36
f 166/330/33 179/331/33 165/332/33 178/333/33
f 174/334/33 176/335/33 175/336/33 182/337/33
f 170/315/36 181/338/36 172/339/36 173/340/36
f 176/300/36 189/341/36 192/342/36 175/343/36
usemtl tiles
f 187/344/35 188/345/35 186/346/35 185/347/35
f 188/348/32 183/349/32 184/350/32 186/351/32
usemtl building4
f 191/352/35 192/353/35 189/354/35 190/355/35
usemtl building6
f 194/356/35 172/357/35 181/358/35 193/359/35
o buildingsWest_ENVO_asiancity.007
v -14.038401 8.733377 10.005989
v -14.038401 8.733379 -0.599189
v -14.038401 9.794119 -0.573065
v -14.038401 0.161082 -0.573066
v -14.038401 0.146074 10.023997
v -14.038401 0.146073 16.200680
v -14.038401 4.883275 16.200680
v -9.781878 4.883275 16.200680
v -9.781878 8.733377 10.005989
v -9.781878 8.733379 -0.599189
v -9.781878 9.794119 -0.573065
v -14.038401 0.146075 -0.599190
v -14.038401 0.146074 10.005988
v -9.781878 0.146075 -0.599190
v -14.038401 9.794120 -8.523279
v -14.038401 0.161083 -8.523280
v -9.781878 0.161083 -8.523280
v -14.038401 4.883276 10.023997
v -9.781878 0.146074 10.005988
v -9.781878 9.794120 -8.523279
v -9.781878 0.161082 -0.573066
v -14.465274 0.241452 20.818710
v -14.465274 0.241457 -13.270042
v -9.290525 0.188653 -8.080953
v -9.290525 0.241456 -8.080953
v -9.290525 0.241453 15.728893
v -9.290525 0.188649 15.728893
v -9.781878 4.883276 10.023997
v -9.781878 0.146073 16.200680
v -9.781878 0.146074 10.023997
vt 1.000000 1.000000
vt 0.000000 1.000000
vt 0.000000 0.000000
vt 1.000000 0.000000
vt 1.000000 1.000000
vt 0.000000 1.000000
vt 0.000000 0.000000
vt 1.000000 0.000000
vt 0.000000 0.000000
vt 1.000000 0.000000
vt 1.000000 1.000000
vt 0.000000 1.000000
vt 1.000000 1.000000
vt 0.000000 0.000000
vt 1.000000 0.000000
vt 0.000000 0.000000
vt 1.000000 0.000000
vt 1.000000 1.000000
vt 0.000000 1.000000
vt 1.000000 1.000000
vt 0.000000 0.000000
vt 1.000000 0.000000
vt 0.000000 0.000000
vt 1.000000 0.000000
vt 1.000000 1.000000
vt 0.000000 1.000000
vt 1.000000 1.000000
vt 0.000000 1.000000
vt 0.000000 0.000000
vt 1.000000 0.000000
vt 1.000000 1.000000
vt 0.000000 1.000000
vt 0.000000 0.000000
vt 1.000000 0.000000
vt 1.000000 1.000000
vt 0.000000 0.000000
vt 1.000000 0.000000
vt 0.000000 0.000000
vt 1.000000 0.000000
vt 1.000000 1.000000
vt 0.000000 1.000000
vt 8.292297 -0.755981
vt -7.357483 -0.755981
vt -7.357483 -0.244019
vt 8.292297 -0.244019
vt -8.856323 10.703003
vt -5.088928 7.357483
vt -5.088928 -8.292297
vt -8.856323 -11.703003
vt 0.000000 0.000000
vt 1.000000 0.000000
vt 0.000000 1.000000
vt 0.000000 0.000000
vt 1.000000 0.000000
vt 0.000000 1.000000
vt 0.000000 0.000000
vt 1.000000 0.000000
vt 0.000000 1.000000
vn 0.0000 1.0000 0.0000
vn 0.0000 -0.0000 1.0000
vn -1.0000 0.0000 0.0000
vn 0.0000 0.0000 -1.0000
vn 1.0000 0.0000 0.0000
usemtl concrete
s off
f 204/360/37 196/361/37 195/362/37 203/363/37
f 222/364/37 212/365/37 201/366/37 202/367/37
f 207/368/38 213/369/38 203/370/38 195/371/38
f 195/372/39 196/361/39 206/373/39 207/374/39
f 210/375/39 198/376/39 197/377/39 209/378/39
f 214/379/37 209/378/37 197/380/37 205/381/37
f 200/382/38 223/383/38 202/384/38 201/385/38
f 212/386/40 222/387/40 224/388/40 199/389/40
f 209/390/40 214/391/40 211/392/40 210/393/40
f 201/394/39 212/365/39 199/395/39 200/396/39
f 198/397/38 215/398/38 205/399/38 197/400/38
usemtl tiles
f 219/401/41 220/402/41 221/403/41 218/404/41
f 216/405/37 220/406/37 219/407/37 217/408/37
usemtl building1
f 215/409/41 211/410/41 214/379/41 205/411/41
usemtl building3
f 213/412/41 208/413/41 204/360/41 203/414/41
usemtl building4
f 223/415/41 224/416/41 222/364/41 202/417/41
